<svg width="62" height="18" viewBox="0 0 62 18" fill="none" xmlns="http://www.w3.org/2000/svg">
<path fill-rule="evenodd" clip-rule="evenodd" d="M30.8281 16.767H26.3162C26.2301 16.767 26.1602 16.6969 26.1602 16.6104V15.8074C26.1602 15.7209 26.2301 15.6508 26.3162 15.6508H30.8281V16.767ZM30.732 12.332H25.0946L25.5542 13.5514H30.674C30.7603 13.5514 30.8304 13.6217 30.8304 13.708L30.8283 14.4274H26.2586C25.3963 14.4274 24.6973 15.1285 24.6973 15.9931V16.4333C24.6973 17.2979 25.3963 17.9988 26.2586 17.9988H32.2916L32.2933 13.8921C32.2933 13.0275 31.5943 12.332 30.732 12.332Z" fill="white"/>
<mask id="mask0_12783_46881" style="mask-type:luminance" maskUnits="userSpaceOnUse" x="33" y="10" width="8" height="8">
<path fill-rule="evenodd" clip-rule="evenodd" d="M33.707 10.918H40.5506V17.9987H33.707V10.918Z" fill="white"/>
</mask>
<g>
<path fill-rule="evenodd" clip-rule="evenodd" d="M38.9784 16.6117C38.9784 16.6982 38.9085 16.7683 38.8222 16.7683H35.3102V13.5758H38.8222C38.9085 13.5758 38.9784 13.6457 38.9784 13.7322V16.6117ZM38.9891 12.3318H35.31V10.918H35.2792H33.707V17.9988H35.31H38.9891C39.8515 17.9988 40.5506 17.2979 40.5506 16.4333V13.8973C40.5506 13.0327 39.8515 12.3318 38.9891 12.3318Z" fill="white"/>
</g>
<path fill-rule="evenodd" clip-rule="evenodd" d="M44.0095 3.25H36.0703V8.91675H37.6275V4.65038C37.6275 4.56385 37.6974 4.49376 37.7837 4.49376H39.8915C39.9778 4.49376 40.0477 4.56385 40.0477 4.65038V8.91675H41.6131V4.65038C41.6131 4.56385 41.683 4.49376 41.7693 4.49376H43.8466C43.9329 4.49376 44.0028 4.56385 44.0028 4.65038V8.91675H45.5708V4.81547C45.5708 3.95088 44.8718 3.25 44.0095 3.25Z" fill="white"/>
<mask id="mask1_12783_46881" style="mask-type:luminance" maskUnits="userSpaceOnUse" x="54" y="3" width="8" height="6">
<path fill-rule="evenodd" clip-rule="evenodd" d="M54.998 3.25H61.9977V8.91675H54.998V3.25Z" fill="white"/>
</mask>
<g>
<path fill-rule="evenodd" clip-rule="evenodd" d="M60.5345 3.25V7.5297C60.5345 7.61606 60.4646 7.68632 60.3785 7.68632H56.6293C56.543 7.68632 56.4731 7.61606 56.4731 7.5297V3.25H54.998V7.35128C54.998 8.21587 55.6971 8.91675 56.5594 8.91675H60.4365C61.2988 8.91675 61.9978 8.21587 61.9978 7.35128V3.25H60.5345Z" fill="white"/>
</g>
<path fill-rule="evenodd" clip-rule="evenodd" d="M28.5237 6.72537C28.5237 6.63884 28.5936 6.56875 28.6797 6.56875H33.1916V7.68497H28.6797C28.5936 7.68497 28.5237 7.61488 28.5237 7.52852V6.72537ZM28.622 8.91693H34.6549L34.6568 4.81028C34.6568 3.94552 33.9578 3.25 33.0955 3.25H27.458L27.9177 4.46953H33.0375C33.1238 4.46953 33.1938 4.53962 33.1938 4.62615L33.1918 5.34555H28.622C27.7597 5.34555 27.0605 6.04643 27.0605 6.91102V7.35145C27.0605 8.21587 27.7597 8.91693 28.622 8.91693Z" fill="white"/>
<path fill-rule="evenodd" clip-rule="evenodd" d="M52.1149 7.52578C52.1149 7.61231 52.0452 7.6824 51.9589 7.6824H48.4469V4.48984H51.9589C52.0452 4.48984 52.1149 4.55976 52.1149 4.64629V7.52578ZM52.126 3.24608H48.4468V1.83203H48.416H46.8438V8.91301H48.4468H52.126C52.9884 8.91301 53.6873 8.21213 53.6873 7.34753V4.81155C53.6873 3.94696 52.9884 3.24608 52.126 3.24608Z" fill="white"/>
<path fill-rule="evenodd" clip-rule="evenodd" d="M7.39453 17.9991H13.7948L13.7955 9.24573L7.39453 6.71875V17.9991Z" fill="white"/>
<mask id="mask2_12783_46881" style="mask-type:luminance" maskUnits="userSpaceOnUse" x="7" y="0" width="7" height="9">
<path fill-rule="evenodd" clip-rule="evenodd" d="M7.39453 0H13.7955V8.16855H7.39453V0Z" fill="white"/>
</mask>
<g>
<path fill-rule="evenodd" clip-rule="evenodd" d="M7.39453 0V5.6401L13.7955 8.16864L13.7948 0H7.39453Z" fill="white"/>
</g>
<mask id="mask3_12783_46881" style="mask-type:luminance" maskUnits="userSpaceOnUse" x="0" y="0" width="7" height="12">
<path fill-rule="evenodd" clip-rule="evenodd" d="M0 0H6.40082V11.2803H0V0Z" fill="white"/>
</mask>
<g>
<path fill-rule="evenodd" clip-rule="evenodd" d="M0 0V11.2804L6.40082 8.7534L6.40013 0H0Z" fill="white"/>
</g>
<path fill-rule="evenodd" clip-rule="evenodd" d="M0 17.9966H6.40013L6.40082 9.82812L0 12.3565V17.9966Z" fill="white"/>
<path fill-rule="evenodd" clip-rule="evenodd" d="M18.0703 0.629186V2.15763L19.6732 1.53999V0.0117188L18.0703 0.629186Z" fill="white"/>
<path fill-rule="evenodd" clip-rule="evenodd" d="M23.3016 7.68782H21.8844H19.6734V5.80479H21.96H22.4172H23.3016C23.5155 5.80479 23.7119 5.8773 23.8697 5.99826C24.0944 6.17028 24.2399 6.44077 24.2399 6.74622C24.2399 7.26625 23.8198 7.68782 23.3016 7.68782ZM19.6734 2.8042H21.4926H23.079C23.1796 2.8042 23.2756 2.8267 23.3648 2.86529C23.6876 2.99283 23.9166 3.3078 23.9166 3.6771C23.9166 3.6771 23.9097 3.80032 23.8973 3.85915C23.8503 4.14072 23.6637 4.36414 23.4111 4.46901C23.3001 4.52058 23.1768 4.55 23.0465 4.55H21.34H19.6734V2.8042ZM22.8092 1.54297H19.6734V2.80334L18.0703 3.42098V8.91814H23.7552C23.7662 8.91831 23.7771 8.91987 23.7882 8.91987C23.7994 8.91987 23.8101 8.91831 23.8213 8.91814C24.9611 8.90032 25.8799 7.96962 25.8799 6.82259C25.8799 6.17553 25.5873 5.59735 25.1279 5.21264C25.1372 5.20105 25.1456 5.18894 25.1544 5.17699C25.4332 4.8089 25.6003 4.35169 25.6003 3.85397C25.6003 2.91618 25.0121 2.11804 24.1863 1.80446C23.8075 1.64127 23.3751 1.54954 22.9241 1.54331C22.9077 1.54297 22.8497 1.54297 22.8092 1.54297Z" fill="white"/>
<path fill-rule="evenodd" clip-rule="evenodd" d="M17.998 11V17.9996H23.9977L23.485 16.6725H19.6365V11H17.998Z" fill="white"/>
</svg>
