<svg height="16.933334mm" id="svg8" inkscape:version="0.92.4 (5da689c313, 2019-01-14)" sodipodi:docname="formlabs logo.svg" version="1.1" viewBox="0 0 115.93211 16.933334" width="115.93211mm" xmlns="http://www.w3.org/2000/svg" xmlns:cc="http://creativecommons.org/ns#" xmlns:dc="http://purl.org/dc/elements/1.1/" xmlns:inkscape="http://www.inkscape.org/namespaces/inkscape" xmlns:rdf="http://www.w3.org/1999/02/22-rdf-syntax-ns#" xmlns:sodipodi="http://sodipodi.sourceforge.net/DTD/sodipodi-0.dtd" xmlns:svg="http://www.w3.org/2000/svg">
<defs id="defs2"></defs>
<sodipodi:namedview bordercolor="#666666" borderopacity="1.0" id="base" inkscape:current-layer="g833" inkscape:cx="139.31157" inkscape:cy="3.9397494" inkscape:document-units="mm" inkscape:pageopacity="0.0" inkscape:pageshadow="2" inkscape:window-height="1017" inkscape:window-maximized="1" inkscape:window-width="1920" inkscape:window-x="-8" inkscape:window-y="176" inkscape:zoom="1" pagecolor="#ffffff" showgrid="false"></sodipodi:namedview>
<metadata id="metadata5">
<rdf:rdf>
<cc:work rdf:about="">
<dc:format>image/svg+xml</dc:format>
<dc:type rdf:resource="http://purl.org/dc/dcmitype/StillImage"></dc:type>
<dc:title></dc:title>
</cc:work>
</rdf:rdf>
</metadata>
<g id="layer1" inkscape:groupmode="layer" inkscape:label="Layer 1" transform="translate(-90.784316,-166.49364)">
<g id="g833" style="fill-rule:evenodd" transform="matrix(0.26458333,0,0,0.26458333,90.784316,179.25161)">
<g id="g873" transform="matrix(4.055537,0,0,4.055537,0,-48.219099)">
<path d="m 8.3404849,2.340046 c -0.020427,0.1410942 -0.081708,0.2418758 -0.2454224,0.2418758 -0.040854,0 -0.081708,0 -0.1839922,-0.020156 C 7.665797,2.5214529 7.1751013,2.4408276 6.7049817,2.4408276 c -0.4701196,0 -0.756396,0.060469 -0.9606662,0.2218667 C 5.5603233,2.824092 5.4988931,3.0862713 5.4988931,3.4693885 V 4.578869 h 2.4736073 c 0.1839923,0 0.3269814,0.1209379 0.3269814,0.302639 v 1.8758621 c 0,0.181554 -0.1429891,0.2824828 -0.3269814,0.2824828 H 5.4988931 v 7.8262441 c 0,0.181554 -0.1429891,0.302639 -0.3475575,0.302639 H 2.269188 c -0.2044192,0 -0.3475575,-0.120938 -0.3475575,-0.302639 V 7.0398529 H 0.34755748 C 0.14313822,7.0398529 0,6.9389241 0,6.7573701 V 4.881508 C 0,4.699954 0.14313822,4.578869 0.34755748,4.578869 H 1.9216305 V 3.3079908 C 1.9216305,1.1094805 3.066289,0 5.5398963,0 c 1.5945,0 2.5143122,0.24217012 2.8210156,0.34295172 0.2044193,0.060469 0.2452733,0.24217012 0.2248463,0.34295173 z" id="path815" inkscape:connector-curvature="0" style="fill:#0762c8;fill-opacity:1"></path>
<path d="m 14.077532,15.780892 c -4.7016434,0 -5.2944742,-2.420524 -5.2944742,-5.546961 0,-3.1265839 0.5928308,-5.5672643 5.2944742,-5.5672643 4.701643,0 5.314901,2.4406804 5.314901,5.5672643 1.49e-4,3.12629 -0.613109,5.546961 -5.314901,5.546961 z m 0,-8.7946299 c -1.594351,0 -1.676208,0.9279264 -1.676208,3.2475219 0,2.299439 0.08186,3.227365 1.676208,3.227365 1.614927,0 1.676357,-0.927926 1.676357,-3.227365 0,-2.3195955 -0.06143,-3.2475219 -1.676357,-3.2475219 z" id="path817" inkscape:connector-curvature="0" style="fill:#0762c8;fill-opacity:1"></path>
<path d="m 26.83137,7.2082759 c -1.144658,0 -2.146476,0.1209379 -2.33032,0.1613977 v 7.8062344 c 0,0.181554 -0.122562,0.302639 -0.326981,0.302639 h -2.902724 c -0.183992,0 -0.32713,-0.120938 -0.32713,-0.302639 V 6.2400368 c 0,-0.7262161 0.654112,-0.9479356 1.860349,-1.2102621 0.981243,-0.2017103 2.350747,-0.363108 3.618266,-0.363108 h 0.347558 c 0.183992,0 0.286127,0.040165 0.367984,0.1209379 0.06143,0.060469 0.102284,0.1613977 0.102284,0.3226483 V 6.744092 c -4.47e-4,0.2424643 -4.47e-4,0.4641839 -0.409286,0.4641839 z" id="path819" inkscape:connector-curvature="0" style="fill:#0762c8;fill-opacity:1"></path>
<path d="m 44.68872,15.518565 h -2.902724 c -0.204419,0 -0.32713,-0.120937 -0.32713,-0.302639 V 8.3577747 c 0,-1.0690207 -0.551977,-1.4119724 -1.349078,-1.4119724 -0.654112,0 -1.430935,0.1412414 -1.614927,0.1814069 v 8.0887168 c 0,0.181554 -0.142989,0.302639 -0.347557,0.302639 H 35.24458 c -0.204419,0 -0.327131,-0.120937 -0.327131,-0.302639 V 8.3577747 c 0,-1.0690207 -0.470119,-1.4119724 -1.267369,-1.4119724 -0.633685,0 -1.512792,0.1412414 -1.717211,0.1814069 v 8.0887168 c 0,0.181554 -0.122563,0.302639 -0.326982,0.302639 h -2.902724 c -0.204419,0 -0.32713,-0.120937 -0.32713,-0.302639 V 6.3003586 c 0,-0.7462253 0.633834,-0.9680919 1.880627,-1.2302712 1.00167,-0.2017104 2.555316,-0.4034207 3.843112,-0.4034207 1.287797,0 2.166904,0.302639 2.739308,0.6656 0.388412,-0.1412414 2.125901,-0.6656 3.863539,-0.6656 2.616596,0 4.313232,0.5648184 4.313232,3.1870528 v 7.3623545 c 0,0.181554 -0.122712,0.302492 -0.327131,0.302491 z" id="path821" inkscape:connector-curvature="0" style="fill:#0762c8;fill-opacity:1"></path>
<path d="m 50.952508,14.934518 c 0,0.141242 -0.08171,0.161398 -0.163565,0.201711 -0.224846,0.100929 -0.715393,0.24217 -1.451362,0.24217 -1.226516,0 -2.044193,-0.584975 -2.044193,-2.077572 V 0.59292774 c 0,-0.16154483 0.102285,-0.26217931 0.245274,-0.30263908 L 48.642466,0.0078059 c 0.143138,-0.04031265 0.2657,0.08077241 0.2657,0.24217011 V 13.260367 c 0,0.726216 0.511123,0.826997 0.919813,0.826997 0.286127,0 0.572403,-0.04031 0.715541,-0.08077 l 0.08171,-0.02016 c 0.06128,0 0.143138,0.02016 0.163565,0.141241 l 0.143138,0.685756 c 0.02058,0.08077 0.02058,0.100929 0.02058,0.121085 z" id="path823" inkscape:connector-curvature="0" style="fill:#0762c8;fill-opacity:1"></path>
<path d="m 58.685625,15.478106 c -0.592831,0.141241 -1.574073,0.302639 -2.657302,0.302639 -1.758065,0 -4.681216,-0.06047 -4.681216,-3.328147 0,-2.6626945 1.451362,-2.8441014 3.536558,-3.1668968 L 58.747204,8.6604138 V 7.7124782 c 0,-0.6455908 -0.02058,-1.1699495 -0.735969,-1.4321288 -0.388411,-0.1613977 -0.960666,-0.2421701 -1.8602,-0.2421701 -1.574073,0 -2.9233,0.3832644 -3.781831,0.5851219 -0.204419,0.040313 -0.286128,0.020156 -0.326982,-0.1412414 L 51.85823,5.5742897 c -0.04085,-0.1814069 0.142989,-0.2621794 0.204419,-0.2823357 0.654112,-0.2421701 2.412178,-0.6252873 4.272229,-0.6252873 1.451362,0 2.39175,0.2017103 2.984581,0.5245057 1.042523,0.5446621 1.063099,1.4927448 1.063099,2.4406805 v 5.7891311 c -1.49e-4,1.411678 -0.286425,1.734474 -1.696933,2.057122 z m 0.08186,-5.5469612 -3.986101,0.6657472 c -0.899385,0.161398 -1.758065,0.302639 -1.758065,1.774933 0,2.017104 1.676208,2.158345 3.025435,2.158345 0.899385,0 1.860349,-0.120938 2.718731,-0.403421 z" id="path825" inkscape:connector-curvature="0" style="fill:#0762c8;fill-opacity:1"></path>
<path d="m 64.349611,4.882918 c 0.549592,-0.1538942 2.158704,-0.5543724 3.450377,-0.5543724 3.393419,0 4.333808,1.7144644 4.333808,5.5269517 0,3.9332787 -1.083527,5.5872737 -4.783351,5.5872737 -1.451362,0 -2.780162,-0.242023 -3.454701,-0.46389 -1.022096,-0.342951 -1.063099,-0.847154 -1.063099,-1.593526 V 0.55666514 c 0,-0.1613977 0.08186,-0.22186666 0.245422,-0.26217931 l 1.103804,-0.28248275 c 0.183993,-0.06046897 0.265701,0.12108505 0.265701,0.24217011 V 3.7638743 Z m 3.184528,0.7568184 c -1.124232,0 -2.718732,0.3832644 -3.086716,0.4841931 v 7.6850025 c 0.224846,0.08077 1.308372,0.363108 2.861869,0.363108 2.350896,0 3.147997,-1.089177 3.147997,-4.2760829 1.49e-4,-3.247669 -0.572254,-4.2562207 -2.92315,-4.2562207 z" id="path827" inkscape:connector-curvature="0" style="fill:#0762c8;fill-opacity:1"></path>
<path d="m 76.746845,15.780745 c -1.798919,0 -3.352416,-0.544515 -3.618265,-0.645444 -0.102285,-0.04031 -0.20442,-0.100929 -0.143139,-0.322795 l 0.183844,-0.766529 c 0.041,-0.141094 0.102284,-0.262179 0.32713,-0.181407 0.06128,0.02016 1.553497,0.584975 3.291135,0.584975 1.73749,0 2.739159,-0.544515 2.739159,-1.774934 0,-1.674151 -1.308224,-1.613682 -2.902873,-1.855705 C 75.622167,10.657508 73.067,10.475954 73.067,7.8134069 c 0,-2.6022253 2.350896,-3.1467402 4.149816,-3.1467402 1.757916,0 3.127719,0.363108 3.352416,0.423577 0.143138,0.040313 0.204419,0.1209379 0.183843,0.2421701 l -0.142989,0.907623 c -0.02058,0.121085 -0.08186,0.1613977 -0.224995,0.1613977 -0.286128,-0.040313 -1.798771,-0.3831173 -3.004859,-0.3831173 -1.471789,0 -2.698454,0.4034207 -2.698454,1.6741518 0,1.3716597 1.390081,1.5330574 2.657451,1.6944551 1.839773,0.2421702 3.822685,0.3832644 3.822685,3.1265839 2.98e-4,2.621793 -2.043895,3.267237 -4.415069,3.267237 z" id="path829" inkscape:connector-curvature="0" style="fill:#0762c8;fill-opacity:1"></path>
<path d="m 108.04163,2.4406415 c -0.23349,0.778446 -0.77578,1.3816644 -1.20862,2.0441747 -1.07443,1.6448736 -2.17108,3.275623 -3.25848,4.9124046 -0.0228,0.034281 -0.0395,0.072681 -0.0678,0.1253518 0.36142,0.2439356 0.72478,0.4755126 1.07129,0.7300414 0.14687,0.107991 0.29344,0.245113 0.37813,0.401655 0.21068,0.390032 0.0819,0.844212 -0.26928,1.131108 -1.2462,1.018409 -2.50507,2.022694 -3.72756,3.068322 -0.64859,0.554814 -1.423627,0.240552 -1.652648,-0.440644 -0.874336,-2.600312 -1.78386,-5.189002 -2.68071,-7.7818112 -0.01506,-0.043697 -0.03519,-0.085775 -0.07142,-0.1724322 -0.06784,0.1878805 -0.12301,0.3351541 -0.174152,0.4838989 -0.842577,2.4462713 -1.684856,4.8925425 -2.526986,7.3389605 -0.02922,0.08533 -0.05353,0.172433 -0.08543,0.256736 -0.233793,0.61749 -0.965289,0.820818 -1.483866,0.405775 -0.512167,-0.409894 -1.01658,-0.829352 -1.52487,-1.244396 -0.752519,-0.614988 -1.501758,-1.233802 -2.258601,-1.843494 -0.611618,-0.493315 -0.586122,-1.179365 0.06948,-1.619715 C 88.942372,9.9864622 89.313487,9.7347289 89.70175,9.4726967 89.55548,9.2552438 89.418903,9.0501496 89.279939,8.8466737 87.983047,6.9493312 86.691225,5.0490461 85.386133,3.1572944 84.917057,2.4775703 85.086288,1.3644116 85.903965,0.95231049 86.354403,0.7252944 86.782028,0.45502314 87.225309,0.21388291 c 0.510974,-0.27806897 1.025079,-0.27542069 1.529045,0.0228046 2.531906,1.49862989 5.063961,2.99711269 7.592736,4.50059769 0.148954,0.088717 0.254816,0.097104 0.41033,0.00397 2.514312,-1.5037793 5.03295,-3.0007908 7.55129,-4.4979494 0.5387,-0.32044138 1.08099,-0.32456092 1.62715,-0.0111816 0.41644,0.23878621 0.83065,0.48272184 1.25827,0.70105748 0.44344,0.22628042 0.65173,0.61307582 0.80814,1.04651032 0.016,0.044285 0.0267,0.090041 0.0398,0.1352092 -4.5e-4,0.1085793 -4.5e-4,0.2173057 -4.5e-4,0.3257379 z m -1.39187,0.6158713 c -0.008,-0.011329 -0.0158,-0.022952 -0.0234,-0.034428 -2.96773,0.8601012 -5.93546,1.7202023 -8.950609,2.5941333 1.706774,1.1365518 3.375679,2.2477977 5.059039,3.3686069 1.31359,-1.9892965 2.61406,-3.958731 3.91498,-5.9283126 z M 95.499146,5.6053312 c -2.984283,-0.8696644 -5.920257,-1.7253517 -8.855932,-2.580892 -0.007,0.012064 -0.01387,0.024129 -0.02087,0.03634 1.328054,1.9433931 2.655959,3.886639 3.99296,5.8431264 1.627004,-1.0988874 3.235371,-2.1851218 4.883846,-3.2985747 z m -2.57291,8.4983168 c 0.656945,-1.919558 1.304944,-3.812193 1.952644,-5.70468 -0.06411,0.0256 -0.101688,0.064147 -0.13285,0.1069609 -0.626081,0.8612781 -1.251714,1.7231451 -1.877496,2.5845701 -0.08529,0.117554 -0.167144,0.237609 -0.258693,0.350455 -0.394525,0.486253 -1.150771,0.465803 -1.513239,-0.04399 -0.251983,-0.353986 -0.493529,-0.715034 -0.751327,-1.090059 -0.380658,0.256882 -0.748642,0.505085 -1.133326,0.764616 1.244258,1.015761 2.466301,2.013425 3.714287,3.032128 z M 86.366182,1.8974507 c 2.134101,0.6246989 4.225261,1.2370391 6.316123,1.8490851 -0.01759,-0.051494 -0.04518,-0.081949 -0.07902,-0.1019586 C 91.166237,2.791391 89.729189,1.9383519 88.290351,1.0876668 88.125146,0.9899749 87.95338,1.0015978 87.786535,1.0957568 87.447625,1.2867269 87.10797,1.47652 86.76921,1.6671959 86.648586,1.7348739 86.528857,1.8043177 86.366186,1.8974487 Z m 7.523702,6.0716138 c -0.01208,-0.011917 -0.02415,-0.023835 -0.03623,-0.035752 -0.886115,0.5986575 -1.77223,1.1976092 -2.670721,1.8046529 0.23916,0.3463356 0.461919,0.6689846 0.694817,1.0063456 0.686616,-0.9469066 1.349376,-1.8611502 2.012135,-2.7752468 z" id="path831" inkscape:connector-curvature="0" style="fill:#0762c8;fill-opacity:1"></path>
</g>
</g>
</g>
</svg>