<svg width="612" height="396" viewBox="0 0 612 396" fill="none" xmlns="http://www.w3.org/2000/svg">
<g clip-path="url(#clip0_1599_113)">
<path d="M75.2997 -207.895C87.1772 -220.854 104.393 -228.226 120.463 -227.232L267.831 -218.123C283.901 -217.129 296.383 -207.922 300.575 -193.97L339.019 -66.017C343.211 -52.0645 338.477 -35.4862 326.599 -22.527L217.676 96.3164C205.798 109.276 188.582 116.647 172.512 115.654L25.1442 106.544C9.07451 105.551 -3.40728 96.3438 -7.59942 82.3912L-46.0438 -45.5617C-50.236 -59.5142 -45.5016 -76.0925 -33.6241 -89.0517L75.2997 -207.895Z" fill="#FFE600"/>
<g style="mix-blend-mode:multiply">
<path d="M-70.7003 -151.895C-58.8228 -164.854 -41.6066 -172.226 -25.5369 -171.232L121.831 -162.123C137.901 -161.129 150.383 -151.922 154.575 -137.97L193.019 -10.017C197.211 3.93549 192.477 20.5138 180.599 33.473L71.6757 152.316C59.7982 165.276 42.582 172.647 26.5123 171.654L-120.856 162.544C-136.925 161.551 -149.407 152.344 -153.599 138.391L-192.044 10.4383C-196.236 -3.51421 -191.502 -20.0925 -179.624 -33.0517L-70.7003 -151.895Z" fill="#FFE600"/>
</g>
<path d="M457.095 409.789C460.12 395.184 469.45 382.385 481.57 376.215L592.723 319.628C604.844 313.457 617.913 314.853 627.009 323.288L710.422 400.643C719.518 409.078 723.258 423.272 720.233 437.877L692.494 571.819C689.469 586.424 680.139 599.223 668.018 605.393L556.865 661.98C544.745 668.151 531.675 666.756 522.579 658.32L439.166 580.965C430.07 572.53 426.33 558.337 429.355 543.731L457.095 409.789Z" fill="#FFE600"/>
</g>
<defs>
<clipPath id="clip0_1599_113">
<rect width="612" height="396" fill="white"/>
</clipPath>
</defs>
</svg>
