<svg width="414" height="147" viewBox="0 0 414 147" fill="none" xmlns="http://www.w3.org/2000/svg">
<path d="M39.1343 48.7958C42.7275 46.73 47.1545 46.73 50.7478 48.7958L83.6999 67.7403C87.2931 69.8061 89.5067 73.6239 89.5067 77.7554V115.644C89.5067 119.776 87.2931 123.594 83.6999 125.66L50.7478 144.604C47.1545 146.67 42.7275 146.67 39.1343 144.604L6.18213 125.66C2.58889 123.594 0.375366 119.776 0.375366 115.644V77.7554C0.375366 73.6239 2.58889 69.8061 6.18213 67.7403L39.1343 48.7958Z" fill="#FFE600"/>
<path d="M110.114 97.85C109.129 97.85 108.324 97.5357 107.698 96.9069C107.071 96.2782 106.758 95.4699 106.758 94.4819V6.91144C106.758 5.92346 107.071 5.11511 107.698 4.48641C108.413 3.85769 109.219 3.54333 110.114 3.54333H127.429C128.413 3.54333 129.219 3.85769 129.845 4.48641C130.561 5.11511 130.919 5.92346 130.919 6.91144V39.3799H163.939V6.91144C163.939 5.92346 164.252 5.11511 164.878 4.48641C165.505 3.85769 166.31 3.54333 167.295 3.54333H184.61C185.594 3.54333 186.4 3.85769 187.026 4.48641C187.652 5.11511 187.966 5.92346 187.966 6.91144V94.4819C187.966 95.4699 187.652 96.2782 187.026 96.9069C186.4 97.5357 185.594 97.85 184.61 97.85H167.295C166.31 97.85 165.505 97.5357 164.878 96.9069C164.252 96.2782 163.939 95.4699 163.939 94.4819V60.9357H130.919V94.4819C130.919 95.4699 130.561 96.2782 129.845 96.9069C129.219 97.5357 128.413 97.85 127.429 97.85H110.114Z" fill="black"/>
<path d="M210.129 97.85C209.234 97.85 208.429 97.5357 207.713 96.9069C207.086 96.1884 206.773 95.3801 206.773 94.4819V6.91144C206.773 5.92346 207.086 5.11511 207.713 4.48641C208.429 3.85769 209.234 3.54333 210.129 3.54333H228.115C229.1 3.54333 229.905 3.85769 230.531 4.48641C231.247 5.11511 231.605 5.92346 231.605 6.91144V94.4819C231.605 95.4699 231.247 96.2782 230.531 96.9069C229.905 97.5357 229.1 97.85 228.115 97.85H210.129Z" fill="black"/>
<path d="M277.138 97.85C274.274 97.85 272.44 96.5028 271.634 93.8083L244.252 7.58505L243.984 6.37254C243.984 5.65401 244.252 5.0253 244.789 4.48641C245.415 3.85769 246.131 3.54333 246.937 3.54333H263.581C264.834 3.54333 265.863 3.9026 266.668 4.62113C267.563 5.33966 268.145 6.148 268.413 7.04616L287.473 69.2886L306.399 7.04616C306.668 6.148 307.205 5.33966 308.01 4.62113C308.905 3.9026 309.979 3.54333 311.232 3.54333H328.01C328.726 3.54333 329.352 3.85769 329.889 4.48641C330.516 5.0253 330.829 5.65401 330.829 6.37254L330.56 7.58505L303.178 93.8083C302.373 96.5028 300.538 97.85 297.675 97.85H277.138Z" fill="black"/>
<path d="M346.716 97.85C345.821 97.85 345.016 97.5357 344.3 96.9069C343.673 96.1884 343.36 95.3801 343.36 94.4819V6.91144C343.36 5.92346 343.673 5.11511 344.3 4.48641C345.016 3.85769 345.821 3.54333 346.716 3.54333H409.4C410.385 3.54333 411.19 3.85769 411.816 4.48641C412.443 5.11511 412.756 5.92346 412.756 6.91144V19.5755C412.756 20.4736 412.443 21.282 411.816 22.0005C411.19 22.6292 410.385 22.9436 409.4 22.9436H366.582V41.1313H406.447C407.432 41.1313 408.237 41.4905 408.863 42.2091C409.49 42.8378 409.803 43.6461 409.803 44.6341V56.3551C409.803 57.2532 409.49 58.0616 408.863 58.7801C408.237 59.4088 407.432 59.7232 406.447 59.7232H366.582V78.4498H410.474C411.458 78.4498 412.264 78.7641 412.89 79.3928C413.517 80.0216 413.83 80.8299 413.83 81.8179V94.4819C413.83 95.3801 413.517 96.1884 412.89 96.9069C412.264 97.5357 411.458 97.85 410.474 97.85H346.716Z" fill="black"/>
<path d="M10.8026 31.7205C10.4978 31.7205 10.2234 31.6151 9.97948 31.4042C9.76606 31.1633 9.65935 30.8922 9.65935 30.591V7.1868H1.51909C1.21421 7.1868 0.939819 7.08138 0.695916 6.87053C0.482501 6.62956 0.375793 6.35847 0.375793 6.05726V1.22281C0.375793 0.891473 0.482501 0.620383 0.695916 0.409535C0.939819 0.198686 1.21421 0.0932617 1.51909 0.0932617H26.1228C26.4582 0.0932617 26.7326 0.198686 26.946 0.409535C27.1594 0.620383 27.2661 0.891473 27.2661 1.22281V6.05726C27.2661 6.38859 27.1594 6.65968 26.946 6.87053C26.7326 7.08138 26.4582 7.1868 26.1228 7.1868H17.9825V30.591C17.9825 30.8922 17.8758 31.1633 17.6624 31.4042C17.449 31.6151 17.1746 31.7205 16.8392 31.7205H10.8026Z" fill="black"/>
<path d="M32.5656 31.7205C32.2303 31.7205 31.9559 31.6151 31.7425 31.4042C31.529 31.1934 31.4223 30.9223 31.4223 30.591V1.22281C31.4223 0.891473 31.529 0.620383 31.7425 0.409535C31.9864 0.198686 32.2608 0.0932617 32.5656 0.0932617H38.465C38.8004 0.0932617 39.0748 0.198686 39.2882 0.409535C39.5321 0.620383 39.6541 0.891473 39.6541 1.22281V12.1116H50.9041V1.22281C50.9041 0.891473 51.0108 0.620383 51.2242 0.409535C51.4376 0.198686 51.712 0.0932617 52.0474 0.0932617H57.9468C58.2822 0.0932617 58.5565 0.198686 58.77 0.409535C58.9834 0.620383 59.0901 0.891473 59.0901 1.22281V30.591C59.0901 30.9223 58.9834 31.1934 58.77 31.4042C58.5565 31.6151 58.2822 31.7205 57.9468 31.7205H52.0474C51.712 31.7205 51.4376 31.6151 51.2242 31.4042C51.0108 31.1934 50.9041 30.9223 50.9041 30.591V19.3407H39.6541V30.591C39.6541 30.9223 39.5321 31.1934 39.2882 31.4042C39.0748 31.6151 38.8004 31.7205 38.465 31.7205H32.5656Z" fill="black"/>
<path d="M66.6412 31.7205C66.3363 31.7205 66.0619 31.6151 65.818 31.4042C65.6046 31.1633 65.4979 30.8922 65.4979 30.591V1.22281C65.4979 0.891473 65.6046 0.620383 65.818 0.409535C66.0619 0.198686 66.3363 0.0932617 66.6412 0.0932617H87.998C88.3333 0.0932617 88.6077 0.198686 88.8211 0.409535C89.0345 0.620383 89.1412 0.891473 89.1412 1.22281V5.46989C89.1412 5.7711 89.0345 6.04219 88.8211 6.28316C88.6077 6.49401 88.3333 6.59944 87.998 6.59944H73.4095V12.699H86.9919C87.3272 12.699 87.6016 12.8195 87.815 13.0604C88.0284 13.2713 88.1351 13.5424 88.1351 13.8737V17.8045C88.1351 18.1057 88.0284 18.3768 87.815 18.6178C87.6016 18.8286 87.3272 18.9341 86.9919 18.9341H73.4095V25.2143H88.3638C88.6992 25.2143 88.9736 25.3197 89.187 25.5306C89.4004 25.7414 89.5071 26.0125 89.5071 26.3439V30.591C89.5071 30.8922 89.4004 31.1633 89.187 31.4042C88.9736 31.6151 88.6992 31.7205 88.3638 31.7205H66.6412Z" fill="black"/>
<path d="M106.746 145.714C106.443 145.714 106.169 145.612 105.927 145.407C105.714 145.173 105.608 144.909 105.608 144.616V116.064C105.608 115.742 105.714 115.478 105.927 115.273C106.169 115.068 106.443 114.966 106.746 114.966H111.664C112.392 114.966 112.924 115.288 113.257 115.932L121.271 129.769L129.285 115.932C129.619 115.288 130.151 114.966 130.879 114.966H135.751C136.085 114.966 136.358 115.068 136.571 115.273C136.814 115.478 136.935 115.742 136.935 116.064V144.616C136.935 144.938 136.814 145.202 136.571 145.407C136.358 145.612 136.085 145.714 135.751 145.714H130.333C129.999 145.714 129.71 145.612 129.468 145.407C129.255 145.202 129.149 144.938 129.149 144.616V128.144L124.049 137.324C123.654 137.998 123.123 138.335 122.455 138.335H120.088C119.693 138.335 119.374 138.247 119.131 138.071C118.888 137.895 118.676 137.646 118.494 137.324L113.349 128.144V144.616C113.349 144.909 113.242 145.173 113.03 145.407C112.817 145.612 112.544 145.714 112.21 145.714H106.746Z" fill="black"/>
<path d="M141.494 145.714C141.251 145.714 141.024 145.626 140.811 145.451C140.629 145.246 140.538 145.026 140.538 144.792C140.538 144.616 140.553 144.484 140.583 144.397L151.284 116.196C151.375 115.844 151.572 115.551 151.876 115.317C152.179 115.083 152.574 114.966 153.06 114.966H159.799C160.284 114.966 160.679 115.083 160.983 115.317C161.286 115.551 161.483 115.844 161.575 116.196L172.229 144.397L172.321 144.792C172.321 145.026 172.214 145.246 172.002 145.451C171.82 145.626 171.592 145.714 171.319 145.714H165.718C164.99 145.714 164.504 145.407 164.261 144.792L162.485 140.311H150.328L148.597 144.792C148.355 145.407 147.854 145.714 147.095 145.714H141.494ZM160.664 133.986L156.429 122.389L152.195 133.986H160.664Z" fill="black"/>
<path d="M177.048 145.714C176.744 145.714 176.471 145.612 176.228 145.407C176.016 145.173 175.91 144.909 175.91 144.616V116.064C175.91 115.742 176.016 115.478 176.228 115.273C176.471 115.068 176.744 114.966 177.048 114.966H182.785C183.119 114.966 183.392 115.068 183.605 115.273C183.817 115.478 183.923 115.742 183.923 116.064V125.816L192.347 115.8C192.712 115.244 193.303 114.966 194.123 114.966H200.68C200.953 114.966 201.181 115.068 201.363 115.273C201.545 115.449 201.636 115.654 201.636 115.888C201.636 116.093 201.591 116.269 201.5 116.415L190.571 129.681L202.319 144.265C202.441 144.382 202.501 144.558 202.501 144.792C202.501 145.026 202.41 145.246 202.228 145.451C202.046 145.626 201.818 145.714 201.545 145.714H194.761C194.032 145.714 193.425 145.421 192.939 144.836L183.923 133.986V144.616C183.923 144.938 183.817 145.202 183.605 145.407C183.392 145.612 183.119 145.714 182.785 145.714H177.048Z" fill="black"/>
<path d="M207.241 145.714C206.937 145.714 206.664 145.612 206.421 145.407C206.209 145.173 206.102 144.909 206.102 144.616V116.064C206.102 115.742 206.209 115.478 206.421 115.273C206.664 115.068 206.937 114.966 207.241 114.966H228.505C228.839 114.966 229.112 115.068 229.325 115.273C229.537 115.478 229.643 115.742 229.643 116.064V120.193C229.643 120.486 229.537 120.749 229.325 120.984C229.112 121.189 228.839 121.291 228.505 121.291H213.98V127.221H227.503C227.837 127.221 228.11 127.338 228.323 127.573C228.535 127.778 228.642 128.041 228.642 128.363V132.185C228.642 132.478 228.535 132.741 228.323 132.976C228.11 133.181 227.837 133.283 227.503 133.283H213.98V139.389H228.869C229.203 139.389 229.476 139.491 229.689 139.696C229.901 139.901 230.008 140.165 230.008 140.487V144.616C230.008 144.909 229.901 145.173 229.689 145.407C229.476 145.612 229.203 145.714 228.869 145.714H207.241Z" fill="black"/>
<path d="M236.322 145.714C236.018 145.714 235.745 145.612 235.502 145.407C235.29 145.173 235.184 144.909 235.184 144.616V116.064C235.184 115.742 235.29 115.478 235.502 115.273C235.745 115.068 236.018 114.966 236.322 114.966H248.707C252.684 114.966 255.78 115.844 257.996 117.601C260.242 119.329 261.365 121.789 261.365 124.981C261.365 127.031 260.865 128.773 259.863 130.208C258.861 131.643 257.48 132.741 255.719 133.503L261.957 144.309C262.048 144.484 262.094 144.645 262.094 144.792C262.094 145.026 261.988 145.246 261.775 145.451C261.593 145.626 261.381 145.714 261.138 145.714H255.082C254.201 145.714 253.579 145.319 253.215 144.528L248.024 134.864H243.38V144.616C243.38 144.938 243.258 145.202 243.015 145.407C242.803 145.612 242.53 145.714 242.196 145.714H236.322ZM248.616 128.627C250.012 128.627 251.075 128.305 251.803 127.66C252.532 126.987 252.896 126.064 252.896 124.893C252.896 123.722 252.532 122.799 251.803 122.126C251.105 121.423 250.043 121.071 248.616 121.071H243.38V128.627H248.616Z" fill="black"/>
<path d="M278.55 146.154C275.666 146.154 273.192 145.744 271.128 144.924C269.064 144.104 267.501 143.035 266.438 141.717C265.406 140.37 264.86 138.906 264.799 137.324C264.799 137.09 264.89 136.885 265.072 136.709C265.285 136.504 265.528 136.402 265.801 136.402H271.538C271.902 136.402 272.191 136.475 272.403 136.622C272.646 136.739 272.889 136.929 273.132 137.193C273.526 137.954 274.164 138.584 275.044 139.081C275.924 139.579 277.093 139.828 278.55 139.828C280.281 139.828 281.601 139.565 282.512 139.037C283.422 138.51 283.878 137.793 283.878 136.885C283.878 136.241 283.635 135.714 283.149 135.304C282.694 134.894 281.965 134.528 280.964 134.206C279.962 133.883 278.474 133.517 276.501 133.107C272.858 132.375 270.126 131.306 268.305 129.901C266.514 128.466 265.619 126.431 265.619 123.795C265.619 122.009 266.135 120.413 267.167 119.007C268.199 117.601 269.671 116.503 271.584 115.712C273.496 114.922 275.727 114.526 278.277 114.526C280.918 114.526 283.21 114.966 285.153 115.844C287.095 116.723 288.568 117.836 289.569 119.183C290.602 120.5 291.148 121.804 291.209 123.092C291.209 123.356 291.118 123.575 290.935 123.751C290.753 123.927 290.526 124.015 290.252 124.015H284.242C283.878 124.015 283.574 123.956 283.331 123.839C283.119 123.722 282.921 123.531 282.739 123.268C282.557 122.594 282.056 122.023 281.237 121.555C280.447 121.086 279.461 120.852 278.277 120.852C276.911 120.852 275.864 121.086 275.135 121.555C274.407 122.023 274.042 122.711 274.042 123.619C274.042 124.234 274.24 124.747 274.634 125.157C275.059 125.567 275.727 125.947 276.638 126.299C277.579 126.621 278.915 126.958 280.645 127.309C283.468 127.807 285.714 128.436 287.384 129.198C289.084 129.93 290.328 130.896 291.118 132.097C291.907 133.268 292.301 134.747 292.301 136.534C292.301 138.496 291.71 140.209 290.526 141.673C289.372 143.108 287.748 144.221 285.654 145.012C283.589 145.773 281.222 146.154 278.55 146.154Z" fill="black"/>
<path d="M297.997 145.714C297.694 145.714 297.42 145.612 297.177 145.407C296.965 145.173 296.859 144.909 296.859 144.616V116.064C296.859 115.742 296.965 115.478 297.177 115.273C297.42 115.068 297.694 114.966 297.997 114.966H310.747C314.632 114.966 317.683 115.83 319.899 117.557C322.145 119.285 323.268 121.804 323.268 125.113C323.268 128.393 322.16 130.867 319.944 132.536C317.728 134.176 314.662 134.996 310.747 134.996H305.328V144.616C305.328 144.938 305.207 145.202 304.964 145.407C304.751 145.612 304.478 145.714 304.144 145.714H297.997ZM310.519 128.934C311.855 128.934 312.902 128.612 313.661 127.968C314.42 127.294 314.799 126.313 314.799 125.025C314.799 123.824 314.435 122.872 313.706 122.17C313.008 121.438 311.946 121.071 310.519 121.071H305.191V128.934H310.519Z" fill="black"/>
<path d="M323.629 145.714C323.387 145.714 323.159 145.626 322.946 145.451C322.764 145.246 322.673 145.026 322.673 144.792C322.673 144.616 322.688 144.484 322.719 144.397L333.419 116.196C333.51 115.844 333.708 115.551 334.011 115.317C334.315 115.083 334.709 114.966 335.195 114.966H341.934C342.42 114.966 342.814 115.083 343.118 115.317C343.421 115.551 343.619 115.844 343.71 116.196L354.365 144.397L354.456 144.792C354.456 145.026 354.35 145.246 354.137 145.451C353.955 145.626 353.727 145.714 353.454 145.714H347.853C347.125 145.714 346.639 145.407 346.396 144.792L344.621 140.311H332.463L330.733 144.792C330.49 145.407 329.989 145.714 329.23 145.714H323.629ZM342.799 133.986L338.565 122.389L334.33 133.986H342.799Z" fill="black"/>
<path d="M370.446 146.154C366.105 146.154 362.705 145.143 360.246 143.123C357.818 141.073 356.528 138.115 356.376 134.249C356.346 133.459 356.331 132.17 356.331 130.384C356.331 128.568 356.346 127.25 356.376 126.431C356.528 122.624 357.848 119.695 360.337 117.645C362.827 115.566 366.196 114.526 370.446 114.526C373.117 114.526 375.515 114.966 377.64 115.844C379.765 116.693 381.435 117.923 382.649 119.534C383.894 121.115 384.531 122.975 384.561 125.113V125.201C384.561 125.435 384.455 125.64 384.243 125.816C384.061 125.962 383.848 126.035 383.605 126.035H377.458C377.064 126.035 376.76 125.962 376.548 125.816C376.335 125.64 376.153 125.332 376.001 124.893C375.576 123.4 374.908 122.36 373.998 121.774C373.087 121.159 371.888 120.852 370.4 120.852C366.818 120.852 364.967 122.785 364.845 126.65C364.815 127.441 364.8 128.656 364.8 130.296C364.8 131.936 364.815 133.181 364.845 134.03C364.967 137.895 366.818 139.828 370.4 139.828C371.888 139.828 373.102 139.521 374.043 138.906C374.984 138.261 375.637 137.222 376.001 135.787C376.123 135.348 376.29 135.055 376.502 134.908C376.715 134.733 377.033 134.645 377.458 134.645H383.605C383.879 134.645 384.106 134.733 384.288 134.908C384.501 135.084 384.592 135.304 384.561 135.567C384.531 137.705 383.894 139.579 382.649 141.19C381.435 142.771 379.765 144.001 377.64 144.88C375.515 145.729 373.117 146.154 370.446 146.154Z" fill="black"/>
<path d="M390.488 145.714C390.184 145.714 389.911 145.612 389.668 145.407C389.456 145.173 389.349 144.909 389.349 144.616V116.064C389.349 115.742 389.456 115.478 389.668 115.273C389.911 115.068 390.184 114.966 390.488 114.966H411.752C412.086 114.966 412.359 115.068 412.572 115.273C412.784 115.478 412.89 115.742 412.89 116.064V120.193C412.89 120.486 412.784 120.749 412.572 120.984C412.359 121.189 412.086 121.291 411.752 121.291H397.227V127.221H410.75C411.084 127.221 411.357 127.338 411.57 127.573C411.782 127.778 411.889 128.041 411.889 128.363V132.185C411.889 132.478 411.782 132.741 411.57 132.976C411.357 133.181 411.084 133.283 410.75 133.283H397.227V139.389H412.116C412.45 139.389 412.723 139.491 412.936 139.696C413.148 139.901 413.255 140.165 413.255 140.487V144.616C413.255 144.909 413.148 145.173 412.936 145.407C412.723 145.612 412.45 145.714 412.116 145.714H390.488Z" fill="black"/>
</svg>
