<svg width="414" height="147" viewBox="0 0 414 147" fill="none" xmlns="http://www.w3.org/2000/svg">
<path d="M39.1343 49.2781C42.7275 47.2123 47.1545 47.2123 50.7478 49.2781L83.6999 68.2226C87.2931 70.2884 89.5067 74.1062 89.5067 78.2377V116.127C89.5067 120.258 87.2931 124.076 83.6999 126.142L50.7478 145.086C47.1545 147.152 42.7275 147.152 39.1343 145.086L6.18213 126.142C2.58889 124.076 0.375366 120.258 0.375366 116.127V78.2377C0.375366 74.1062 2.58889 70.2884 6.18213 68.2226L39.1343 49.2781Z" fill="#FFE600"/>
<path d="M110.114 98.3322C109.129 98.3322 108.324 98.0178 107.698 97.3891C107.071 96.7604 106.758 95.9521 106.758 94.9641V7.39361C106.758 6.40563 107.071 5.59729 107.698 4.96858C108.413 4.33987 109.219 4.02551 110.114 4.02551H127.429C128.413 4.02551 129.219 4.33987 129.845 4.96858C130.561 5.59729 130.919 6.40563 130.919 7.39361V39.8621H163.939V7.39361C163.939 6.40563 164.252 5.59729 164.878 4.96858C165.505 4.33987 166.31 4.02551 167.295 4.02551H184.61C185.594 4.02551 186.4 4.33987 187.026 4.96858C187.652 5.59729 187.966 6.40563 187.966 7.39361V94.9641C187.966 95.9521 187.652 96.7604 187.026 97.3891C186.4 98.0178 185.594 98.3322 184.61 98.3322H167.295C166.31 98.3322 165.505 98.0178 164.878 97.3891C164.252 96.7604 163.939 95.9521 163.939 94.9641V61.4179H130.919V94.9641C130.919 95.9521 130.561 96.7604 129.845 97.3891C129.219 98.0178 128.413 98.3322 127.429 98.3322H110.114Z" fill="white"/>
<path d="M210.129 98.3322C209.234 98.3322 208.429 98.0178 207.713 97.3891C207.086 96.6706 206.773 95.8623 206.773 94.9641V7.39361C206.773 6.40563 207.086 5.59729 207.713 4.96858C208.429 4.33987 209.234 4.02551 210.129 4.02551H228.115C229.1 4.02551 229.905 4.33987 230.531 4.96858C231.247 5.59729 231.605 6.40563 231.605 7.39361V94.9641C231.605 95.9521 231.247 96.7604 230.531 97.3891C229.905 98.0178 229.1 98.3322 228.115 98.3322H210.129Z" fill="white"/>
<path d="M277.138 98.3322C274.274 98.3322 272.44 96.985 271.634 94.2905L244.252 8.06723L243.984 6.85472C243.984 6.13619 244.252 5.50748 244.789 4.96858C245.415 4.33987 246.131 4.02551 246.937 4.02551H263.581C264.834 4.02551 265.863 4.38478 266.668 5.10331C267.563 5.82183 268.145 6.63018 268.413 7.52833L287.473 69.7707L306.399 7.52833C306.668 6.63018 307.205 5.82183 308.01 5.10331C308.905 4.38478 309.979 4.02551 311.232 4.02551H328.01C328.726 4.02551 329.352 4.33987 329.889 4.96858C330.516 5.50748 330.829 6.13619 330.829 6.85472L330.56 8.06723L303.178 94.2905C302.373 96.985 300.538 98.3322 297.675 98.3322H277.138Z" fill="white"/>
<path d="M346.716 98.3322C345.821 98.3322 345.016 98.0178 344.3 97.3891C343.673 96.6706 343.36 95.8623 343.36 94.9641V7.39361C343.36 6.40563 343.673 5.59729 344.3 4.96858C345.016 4.33987 345.821 4.02551 346.716 4.02551H409.4C410.385 4.02551 411.19 4.33987 411.816 4.96858C412.443 5.59729 412.756 6.40563 412.756 7.39361V20.0576C412.756 20.9558 412.443 21.7642 411.816 22.4827C411.19 23.1114 410.385 23.4257 409.4 23.4257H366.582V41.6135H406.447C407.432 41.6135 408.237 41.9727 408.863 42.6913C409.49 43.32 409.803 44.1283 409.803 45.1163V56.8372C409.803 57.7354 409.49 58.5438 408.863 59.2623C408.237 59.891 407.432 60.2053 406.447 60.2053H366.582V78.932H410.474C411.458 78.932 412.264 79.2463 412.89 79.875C413.516 80.5037 413.83 81.3121 413.83 82.3001V94.9641C413.83 95.8623 413.516 96.6706 412.89 97.3891C412.264 98.0178 411.458 98.3322 410.474 98.3322H346.716Z" fill="white"/>
<path d="M10.8026 32.2027C10.4978 32.2027 10.2234 32.0973 9.97947 31.8864C9.76606 31.6454 9.65935 31.3743 9.65935 31.0731V7.66898H1.51909C1.21421 7.66898 0.939819 7.56355 0.695916 7.35271C0.482501 7.11174 0.375793 6.84065 0.375793 6.53943V1.70499C0.375793 1.37365 0.482501 1.10256 0.695916 0.891713C0.939819 0.680864 1.21421 0.575439 1.51909 0.575439H26.1228C26.4582 0.575439 26.7326 0.680864 26.946 0.891713C27.1594 1.10256 27.2661 1.37365 27.2661 1.70499V6.53943C27.2661 6.87077 27.1594 7.14186 26.946 7.35271C26.7326 7.56355 26.4582 7.66898 26.1228 7.66898H17.9825V31.0731C17.9825 31.3743 17.8758 31.6454 17.6624 31.8864C17.449 32.0973 17.1746 32.2027 16.8392 32.2027H10.8026Z" fill="white"/>
<path d="M32.5656 32.2027C32.2303 32.2027 31.9559 32.0973 31.7425 31.8864C31.529 31.6756 31.4223 31.4045 31.4223 31.0731V1.70499C31.4223 1.37365 31.529 1.10256 31.7425 0.891713C31.9864 0.680864 32.2608 0.575439 32.5656 0.575439H38.465C38.8004 0.575439 39.0748 0.680864 39.2882 0.891713C39.5321 1.10256 39.6541 1.37365 39.6541 1.70499V12.5938H50.9041V1.70499C50.9041 1.37365 51.0108 1.10256 51.2242 0.891713C51.4376 0.680864 51.712 0.575439 52.0474 0.575439H57.9468C58.2822 0.575439 58.5565 0.680864 58.77 0.891713C58.9834 1.10256 59.0901 1.37365 59.0901 1.70499V31.0731C59.0901 31.4045 58.9834 31.6756 58.77 31.8864C58.5565 32.0973 58.2822 32.2027 57.9468 32.2027H52.0474C51.712 32.2027 51.4376 32.0973 51.2242 31.8864C51.0108 31.6756 50.9041 31.4045 50.9041 31.0731V19.8229H39.6541V31.0731C39.6541 31.4045 39.5321 31.6756 39.2882 31.8864C39.0748 32.0973 38.8004 32.2027 38.465 32.2027H32.5656Z" fill="white"/>
<path d="M66.6412 32.2027C66.3363 32.2027 66.0619 32.0973 65.818 31.8864C65.6046 31.6454 65.4979 31.3743 65.4979 31.0731V1.70499C65.4979 1.37365 65.6046 1.10256 65.818 0.891713C66.0619 0.680864 66.3363 0.575439 66.6412 0.575439H87.998C88.3333 0.575439 88.6077 0.680864 88.8211 0.891713C89.0345 1.10256 89.1412 1.37365 89.1412 1.70499V5.95207C89.1412 6.25328 89.0345 6.52437 88.8211 6.76534C88.6077 6.97619 88.3333 7.08161 87.998 7.08161H73.4095V13.1812H86.9919C87.3272 13.1812 87.6016 13.3016 87.815 13.5426C88.0284 13.7535 88.1351 14.0245 88.1351 14.3559V18.2867C88.1351 18.5879 88.0284 18.859 87.815 19.1C87.6016 19.3108 87.3272 19.4162 86.9919 19.4162H73.4095V25.6965H88.3638C88.6992 25.6965 88.9736 25.8019 89.187 26.0128C89.4004 26.2236 89.5071 26.4947 89.5071 26.826V31.0731C89.5071 31.3743 89.4004 31.6454 89.187 31.8864C88.9736 32.0973 88.6992 32.2027 88.3638 32.2027H66.6412Z" fill="white"/>
<path d="M106.746 146.197C106.443 146.197 106.169 146.094 105.927 145.889C105.714 145.655 105.608 145.391 105.608 145.098V116.546C105.608 116.224 105.714 115.96 105.927 115.755C106.169 115.55 106.443 115.448 106.746 115.448H111.664C112.392 115.448 112.924 115.77 113.257 116.414L121.271 130.251L129.285 116.414C129.619 115.77 130.151 115.448 130.879 115.448H135.751C136.085 115.448 136.358 115.55 136.571 115.755C136.814 115.96 136.935 116.224 136.935 116.546V145.098C136.935 145.42 136.814 145.684 136.571 145.889C136.358 146.094 136.085 146.197 135.751 146.197H130.333C129.999 146.197 129.71 146.094 129.468 145.889C129.255 145.684 129.149 145.42 129.149 145.098V128.626L124.049 137.807C123.654 138.48 123.123 138.817 122.455 138.817H120.088C119.693 138.817 119.374 138.729 119.131 138.553C118.888 138.378 118.676 138.129 118.494 137.807L113.349 128.626V145.098C113.349 145.391 113.242 145.655 113.03 145.889C112.817 146.094 112.544 146.197 112.21 146.197H106.746Z" fill="white"/>
<path d="M141.494 146.197C141.251 146.197 141.024 146.109 140.811 145.933C140.629 145.728 140.538 145.508 140.538 145.274C140.538 145.098 140.553 144.967 140.583 144.879L151.284 116.678C151.375 116.326 151.572 116.034 151.876 115.799C152.179 115.565 152.574 115.448 153.06 115.448H159.799C160.284 115.448 160.679 115.565 160.983 115.799C161.286 116.034 161.483 116.326 161.575 116.678L172.229 144.879L172.321 145.274C172.321 145.508 172.214 145.728 172.002 145.933C171.82 146.109 171.592 146.197 171.319 146.197H165.718C164.99 146.197 164.504 145.889 164.261 145.274L162.485 140.794H150.328L148.597 145.274C148.355 145.889 147.854 146.197 147.095 146.197H141.494ZM160.664 134.468L156.429 122.871L152.195 134.468H160.664Z" fill="white"/>
<path d="M177.048 146.197C176.744 146.197 176.471 146.094 176.228 145.889C176.016 145.655 175.91 145.391 175.91 145.098V116.546C175.91 116.224 176.016 115.96 176.228 115.755C176.471 115.55 176.744 115.448 177.048 115.448H182.785C183.119 115.448 183.392 115.55 183.605 115.755C183.817 115.96 183.923 116.224 183.923 116.546V126.298L192.347 116.282C192.712 115.726 193.303 115.448 194.123 115.448H200.68C200.953 115.448 201.181 115.55 201.363 115.755C201.545 115.931 201.636 116.136 201.636 116.37C201.636 116.575 201.591 116.751 201.5 116.897L190.571 130.163L202.319 144.747C202.441 144.864 202.501 145.04 202.501 145.274C202.501 145.508 202.41 145.728 202.228 145.933C202.046 146.109 201.818 146.197 201.545 146.197H194.761C194.032 146.197 193.425 145.904 192.939 145.318L183.923 134.468V145.098C183.923 145.42 183.817 145.684 183.605 145.889C183.392 146.094 183.119 146.197 182.785 146.197H177.048Z" fill="white"/>
<path d="M207.241 146.197C206.937 146.197 206.664 146.094 206.421 145.889C206.209 145.655 206.102 145.391 206.102 145.098V116.546C206.102 116.224 206.209 115.96 206.421 115.755C206.664 115.55 206.937 115.448 207.241 115.448H228.505C228.839 115.448 229.112 115.55 229.325 115.755C229.537 115.96 229.643 116.224 229.643 116.546V120.675C229.643 120.968 229.537 121.231 229.325 121.466C229.112 121.671 228.839 121.773 228.505 121.773H213.98V127.703H227.503C227.837 127.703 228.11 127.821 228.323 128.055C228.535 128.26 228.642 128.523 228.642 128.845V132.667C228.642 132.96 228.535 133.223 228.323 133.458C228.11 133.663 227.837 133.765 227.503 133.765H213.98V139.871H228.869C229.203 139.871 229.476 139.974 229.689 140.179C229.901 140.384 230.008 140.647 230.008 140.969V145.098C230.008 145.391 229.901 145.655 229.689 145.889C229.476 146.094 229.203 146.197 228.869 146.197H207.241Z" fill="white"/>
<path d="M236.322 146.197C236.018 146.197 235.745 146.094 235.502 145.889C235.29 145.655 235.184 145.391 235.184 145.098V116.546C235.184 116.224 235.29 115.96 235.502 115.755C235.745 115.55 236.018 115.448 236.322 115.448H248.707C252.684 115.448 255.78 116.326 257.996 118.083C260.242 119.811 261.365 122.271 261.365 125.463C261.365 127.513 260.865 129.255 259.863 130.69C258.861 132.125 257.48 133.223 255.719 133.985L261.957 144.791C262.048 144.967 262.094 145.128 262.094 145.274C262.094 145.508 261.988 145.728 261.775 145.933C261.593 146.109 261.381 146.197 261.138 146.197H255.082C254.201 146.197 253.579 145.801 253.215 145.01L248.024 135.347H243.38V145.098C243.38 145.42 243.258 145.684 243.015 145.889C242.803 146.094 242.53 146.197 242.196 146.197H236.322ZM248.616 129.109C250.012 129.109 251.075 128.787 251.803 128.143C252.532 127.469 252.896 126.547 252.896 125.375C252.896 124.204 252.532 123.281 251.803 122.608C251.105 121.905 250.043 121.554 248.616 121.554H243.38V129.109H248.616Z" fill="white"/>
<path d="M278.55 146.636C275.666 146.636 273.192 146.226 271.128 145.406C269.064 144.586 267.501 143.517 266.438 142.199C265.406 140.852 264.86 139.388 264.799 137.807C264.799 137.572 264.89 137.367 265.072 137.192C265.285 136.987 265.528 136.884 265.801 136.884H271.538C271.902 136.884 272.191 136.957 272.403 137.104C272.646 137.221 272.889 137.411 273.132 137.675C273.526 138.436 274.164 139.066 275.044 139.564C275.924 140.061 277.093 140.31 278.55 140.31C280.281 140.31 281.601 140.047 282.512 139.52C283.422 138.993 283.878 138.275 283.878 137.367C283.878 136.723 283.635 136.196 283.149 135.786C282.694 135.376 281.965 135.01 280.964 134.688C279.962 134.366 278.474 134 276.501 133.59C272.858 132.857 270.126 131.789 268.305 130.383C266.514 128.948 265.619 126.913 265.619 124.277C265.619 122.491 266.135 120.895 267.167 119.489C268.199 118.083 269.671 116.985 271.584 116.195C273.496 115.404 275.727 115.009 278.277 115.009C280.918 115.009 283.21 115.448 285.153 116.326C287.095 117.205 288.568 118.318 289.569 119.665C290.602 120.983 291.148 122.286 291.209 123.574C291.209 123.838 291.118 124.057 290.935 124.233C290.753 124.409 290.526 124.497 290.252 124.497H284.242C283.878 124.497 283.574 124.438 283.331 124.321C283.119 124.204 282.921 124.014 282.739 123.75C282.557 123.076 282.056 122.505 281.237 122.037C280.447 121.568 279.461 121.334 278.277 121.334C276.911 121.334 275.864 121.568 275.135 122.037C274.407 122.505 274.042 123.194 274.042 124.101C274.042 124.716 274.24 125.229 274.634 125.639C275.059 126.049 275.727 126.429 276.638 126.781C277.579 127.103 278.914 127.44 280.645 127.791C283.468 128.289 285.714 128.919 287.384 129.68C289.084 130.412 290.328 131.379 291.118 132.579C291.907 133.751 292.301 135.229 292.301 137.016C292.301 138.978 291.71 140.691 290.526 142.155C289.372 143.59 287.748 144.703 285.654 145.494C283.589 146.255 281.222 146.636 278.55 146.636Z" fill="white"/>
<path d="M297.997 146.197C297.694 146.197 297.42 146.094 297.177 145.889C296.965 145.655 296.859 145.391 296.859 145.098V116.546C296.859 116.224 296.965 115.96 297.177 115.755C297.42 115.55 297.694 115.448 297.997 115.448H310.747C314.632 115.448 317.683 116.312 319.899 118.039C322.145 119.767 323.268 122.286 323.268 125.595C323.268 128.875 322.16 131.349 319.944 133.018C317.728 134.658 314.662 135.478 310.747 135.478H305.328V145.098C305.328 145.42 305.207 145.684 304.964 145.889C304.751 146.094 304.478 146.197 304.144 146.197H297.997ZM310.519 129.417C311.855 129.417 312.902 129.094 313.661 128.45C314.42 127.777 314.799 126.796 314.799 125.507C314.799 124.306 314.435 123.355 313.706 122.652C313.008 121.92 311.946 121.554 310.519 121.554H305.191V129.417H310.519Z" fill="white"/>
<path d="M323.629 146.197C323.387 146.197 323.159 146.109 322.946 145.933C322.764 145.728 322.673 145.508 322.673 145.274C322.673 145.098 322.688 144.967 322.719 144.879L333.419 116.678C333.51 116.326 333.708 116.034 334.011 115.799C334.315 115.565 334.709 115.448 335.195 115.448H341.934C342.42 115.448 342.814 115.565 343.118 115.799C343.421 116.034 343.619 116.326 343.71 116.678L354.365 144.879L354.456 145.274C354.456 145.508 354.35 145.728 354.137 145.933C353.955 146.109 353.727 146.197 353.454 146.197H347.853C347.125 146.197 346.639 145.889 346.396 145.274L344.621 140.794H332.463L330.733 145.274C330.49 145.889 329.989 146.197 329.23 146.197H323.629ZM342.799 134.468L338.565 122.871L334.33 134.468H342.799Z" fill="white"/>
<path d="M370.446 146.636C366.105 146.636 362.705 145.625 360.246 143.605C357.818 141.555 356.528 138.597 356.376 134.732C356.346 133.941 356.331 132.652 356.331 130.866C356.331 129.05 356.346 127.733 356.376 126.913C356.528 123.106 357.848 120.177 360.337 118.127C362.827 116.048 366.196 115.009 370.446 115.009C373.117 115.009 375.515 115.448 377.64 116.326C379.765 117.176 381.435 118.406 382.649 120.016C383.894 121.598 384.531 123.457 384.561 125.595V125.683C384.561 125.917 384.455 126.122 384.243 126.298C384.061 126.444 383.848 126.517 383.605 126.517H377.458C377.064 126.517 376.76 126.444 376.548 126.298C376.335 126.122 376.153 125.815 376.001 125.375C375.576 123.882 374.908 122.842 373.998 122.256C373.087 121.641 371.888 121.334 370.4 121.334C366.818 121.334 364.967 123.267 364.845 127.132C364.815 127.923 364.8 129.138 364.8 130.778C364.8 132.418 364.815 133.663 364.845 134.512C364.967 138.378 366.818 140.31 370.4 140.31C371.888 140.31 373.102 140.003 374.043 139.388C374.984 138.744 375.637 137.704 376.001 136.269C376.123 135.83 376.29 135.537 376.502 135.391C376.715 135.215 377.033 135.127 377.458 135.127H383.605C383.878 135.127 384.106 135.215 384.288 135.391C384.501 135.566 384.592 135.786 384.561 136.049C384.531 138.187 383.894 140.061 382.649 141.672C381.435 143.253 379.765 144.483 377.64 145.362C375.515 146.211 373.117 146.636 370.446 146.636Z" fill="white"/>
<path d="M390.488 146.197C390.184 146.197 389.911 146.094 389.668 145.889C389.456 145.655 389.349 145.391 389.349 145.098V116.546C389.349 116.224 389.456 115.96 389.668 115.755C389.911 115.55 390.184 115.448 390.488 115.448H411.752C412.086 115.448 412.359 115.55 412.572 115.755C412.784 115.96 412.89 116.224 412.89 116.546V120.675C412.89 120.968 412.784 121.231 412.572 121.466C412.359 121.671 412.086 121.773 411.752 121.773H397.227V127.703H410.75C411.084 127.703 411.357 127.821 411.57 128.055C411.782 128.26 411.889 128.523 411.889 128.845V132.667C411.889 132.96 411.782 133.223 411.57 133.458C411.357 133.663 411.084 133.765 410.75 133.765H397.227V139.871H412.116C412.45 139.871 412.723 139.974 412.936 140.179C413.148 140.384 413.255 140.647 413.255 140.969V145.098C413.255 145.391 413.148 145.655 412.936 145.889C412.723 146.094 412.45 146.197 412.116 146.197H390.488Z" fill="white"/>
</svg>
