<svg width="1088" height="672" viewBox="0 0 1088 672" fill="none" xmlns="http://www.w3.org/2000/svg">
<path d="M1086.84 76.2778C1086.84 87.93 1067.33 98.9572 1032.55 108.778C1003.11 117.091 962.722 124.54 913.963 130.773C870.108 136.378 819.48 140.999 763.946 144.38C716.638 147.26 665.771 149.24 612.5 150.161C590.038 150.549 567.15 150.75 543.92 150.75C515.745 150.75 488.071 150.455 461.053 149.888C407.606 148.765 356.725 146.573 309.607 143.476C253.619 139.796 202.944 134.838 159.59 128.878C103.502 121.168 59.667 111.78 32.4322 101.31C12.082 93.4866 1.00002 85.0597 1.00002 76.2776M159.59 472.808V615.719C242.744 650.242 364.025 666.83 501.058 669.629C515.186 669.917 529.482 670.059 543.92 670.059C567.185 670.059 590.079 669.566 612.5 668.606M159.59 472.808C248.43 500.155 368.01 518.077 501.058 521.268C515.2 521.607 529.495 521.78 543.92 521.78C656.696 521.78 761.44 511.219 848.241 493.142C852.33 492.29 856.378 491.422 860.386 490.538C874.736 487.371 888.563 483.994 901.819 480.422C926.816 473.686 949.782 466.256 970.398 458.231C977.854 455.328 985.003 452.348 991.829 449.294C1003.49 444.075 1014.22 438.643 1023.92 433.02C1031.19 428.81 1037.88 424.493 1043.98 420.079M159.59 472.808C147.188 468.991 135.385 464.99 124.229 460.819C111.59 456.095 99.7797 451.153 88.8674 446.015C71.5008 437.839 56.4072 429.165 43.8621 420.079M1043.98 420.079C1071.58 400.091 1086.84 378.108 1086.84 355.03V81.5425C1086.84 40.4429 843.767 7.125 543.92 7.125C244.074 7.125 1 40.4429 1 81.5425V355.03C1 378.108 16.2646 400.091 43.8621 420.079M1043.98 420.079V505.024C1043.98 521.922 1036.98 538.004 1023.92 553.032C1015.6 562.61 1004.82 571.759 991.829 580.417C985.244 584.806 978.089 589.069 970.398 593.197C950.835 603.698 927.8 613.331 901.819 621.962C888.733 626.309 874.899 630.402 860.386 634.224C856.389 635.277 852.34 636.309 848.241 637.32C822.067 643.777 793.846 649.381 763.946 654.038C731.265 659.129 696.578 663.09 660.362 665.799M43.8621 420.079V505.024C43.8621 515.741 46.6785 526.23 52.0691 536.409H88.8674H124.229H159.59M660.362 665.799C644.682 666.973 628.715 667.911 612.5 668.606M660.362 665.799L612.5 668.606" stroke="white" stroke-width="2"/>
<path d="M1086.84 306.595C1086.84 389.139 879.97 457.265 612.5 467.325C590.038 468.17 567.15 468.605 543.92 468.605C244.074 468.605 1 396.071 1 306.595M1086.84 102.895C1086.84 116.003 1067.33 128.409 1032.55 139.458C1003.11 148.81 962.722 157.19 913.963 164.201C870.108 170.508 819.48 175.707 763.946 179.51C716.638 182.75 665.771 184.977 612.5 186.014C590.038 186.45 567.15 186.676 543.92 186.676C515.745 186.676 488.071 186.344 461.053 185.706C407.606 184.443 356.725 181.977 309.607 178.493C253.619 174.353 202.944 168.776 159.59 162.071C103.502 153.396 59.667 142.834 32.4322 131.056C12.082 122.255 1 112.774 1 102.895" stroke="white" stroke-width="2"/>
<path d="M612.847 520.031V667.631M764.187 507.134V653.117M501.485 668.65V520.833M860.558 490.216V633.376M991.909 449.123V579.766M1023.98 552.48V432.908M89.585 535.918V445.856M124.921 535.918V460.606" stroke="white" stroke-width="2"/>
<path d="M1086.84 212.883C1086.84 271.118 879.97 319.181 612.5 326.279C590.038 326.875 567.15 327.182 543.92 327.182C393.779 327.182 257.873 314.351 159.59 293.614C61.5921 272.937 1 244.4 1 212.883" stroke="white" stroke-width="2"/>
<path d="M1032.55 108.9V427.518M913.964 130.867V476.703M763.946 144.457V507.134M612.5 150.231V326.562M461.054 149.957V519.45M309.608 143.554V505.112M32.4326 101.441V410.817M159.59 472.468V293.92M612.5 520.062V466.972" stroke="white" stroke-width="2"/>
<path d="M1007.27 73.294C1007.27 74.6051 1006.63 76.01 1005.15 77.5167C1003.67 79.0264 1001.42 80.563 998.369 82.1055C992.275 85.1884 983.226 88.1905 971.484 91.0646C948.017 96.809 914.017 101.991 871.954 106.346C787.84 115.055 671.612 120.444 543.214 120.444C414.816 120.444 298.589 115.055 214.474 106.346C172.411 101.991 138.411 96.809 114.944 91.0646C103.203 88.1905 94.1531 85.1884 88.0599 82.1055C85.0113 80.563 82.7559 79.0264 81.2751 77.5167C79.7972 76.01 79.1602 74.6051 79.1602 73.294C79.1602 71.9725 79.8066 70.4893 81.3019 68.8406C82.7948 67.1947 85.0618 65.4663 88.1136 63.6797C94.214 60.1084 103.269 56.4083 115.008 52.6929C138.473 45.2664 172.47 37.8381 214.526 31.235C298.628 18.0306 414.84 8.14453 543.214 8.14453C671.589 8.14453 787.8 18.0306 871.902 31.235C913.958 37.8381 947.955 45.2664 971.42 52.6929C983.16 56.4083 992.214 60.1084 998.315 63.6797C1001.37 65.4663 1003.63 67.1947 1005.13 68.8406C1006.62 70.4893 1007.27 71.9725 1007.27 73.294Z" stroke="white" stroke-width="2"/>
<path d="M800.929 59.6735C801.034 60.3514 800.843 61.0994 800.207 61.9219C799.567 62.7498 798.516 63.5958 797.039 64.4326C794.087 66.105 789.613 67.6412 783.906 68.9425C772.508 71.5416 756.406 73.1577 738.308 73.1577C720.21 73.1577 703.604 71.5416 691.396 68.9425C685.284 67.6412 680.33 66.105 676.857 64.4326C675.12 63.5958 673.805 62.7498 672.907 61.9219C672.014 61.0994 671.59 60.3514 671.485 59.6735C671.379 58.9955 671.57 58.2476 672.206 57.4251C672.846 56.5972 673.897 55.7511 675.374 54.9144C678.326 53.2419 682.801 51.7057 688.507 50.4044C699.905 47.8054 716.007 46.1892 734.105 46.1892C752.203 46.1892 768.809 47.8054 781.017 50.4044C787.129 51.7057 792.083 53.2419 795.556 54.9144C797.294 55.7511 798.608 56.5972 799.506 57.4251C800.399 58.2476 800.823 58.9955 800.929 59.6735Z" fill="white" stroke="white" stroke-width="2"/>
<path d="M281.443 60.6227C281.337 61.3006 281.528 62.0486 282.164 62.8711C282.804 63.699 283.855 64.5451 285.332 65.3818C288.284 67.0543 292.759 68.5904 298.465 69.8917C309.863 72.4908 325.965 74.1069 344.063 74.1069C362.161 74.1069 378.767 72.4908 390.975 69.8917C397.087 68.5904 402.041 67.0543 405.514 65.3818C407.252 64.5451 408.566 63.699 409.464 62.8711C410.357 62.0486 410.781 61.3006 410.886 60.6227C410.992 59.9447 410.801 59.1968 410.165 58.3743C409.525 57.5464 408.474 56.7003 406.997 55.8636C404.045 54.1911 399.571 52.655 393.864 51.3536C382.466 48.7546 366.364 47.1385 348.266 47.1385C330.168 47.1385 313.562 48.7546 301.354 51.3536C295.242 52.655 290.288 54.1911 286.815 55.8636C285.078 56.7003 283.763 57.5464 282.865 58.3743C281.972 59.1968 281.548 59.9447 281.443 60.6227Z" fill="white" stroke="white" stroke-width="2"/>
<path d="M605.797 14.6236C605.797 15.3076 605.49 16.0628 604.726 16.8939C603.957 17.7303 602.774 18.5853 601.167 19.4308C597.955 21.1208 593.24 22.673 587.331 23.988C575.528 26.6142 559.173 28.2473 541.075 28.2473C522.977 28.2473 506.623 26.6142 494.82 23.988C488.911 22.673 484.196 21.1208 480.984 19.4308C479.377 18.5853 478.194 17.7303 477.425 16.8939C476.661 16.0628 476.354 15.3076 476.354 14.6236C476.354 13.9397 476.661 13.1844 477.425 12.3534C478.194 11.5169 479.377 10.662 480.984 9.81646C484.196 8.12647 488.911 6.57422 494.82 5.25929C506.623 2.63303 522.977 1 541.075 1C559.173 1 575.528 2.63303 587.331 5.25929C593.24 6.57422 597.955 8.12647 601.167 9.81646C602.774 10.662 603.957 11.5169 604.726 12.3534C605.49 13.1844 605.797 13.9397 605.797 14.6236Z" fill="white" stroke="white" stroke-width="2"/>
<line x1="762.084" y1="315.752" x2="762.084" y2="465.769" stroke="white" stroke-width="2"/>
<mask id="mask0_2904_212" style="mask-type:alpha" maskUnits="userSpaceOnUse" x="464" y="316" width="306" height="154">
<path d="M548.214 327.511C571.444 327.511 594.333 327.203 616.794 326.607C670.065 325.193 720.932 322.154 768.24 317.732V454.578C720.932 460.841 670.065 465.147 616.794 467.15C594.333 467.994 571.444 468.429 548.214 468.429C520.039 468.429 492.366 467.789 465.348 466.555V326.187C492.366 327.059 520.039 327.511 548.214 327.511Z" fill="#C4C4C4" stroke="white" stroke-width="2"/>
</mask>
<g mask="url(#mask0_2904_212)">
<line x1="472.048" y1="315.551" x2="472.048" y2="465.775" stroke="white" stroke-width="2"/>
<line x1="480.624" y1="315.549" x2="480.624" y2="465.773" stroke="white" stroke-width="2"/>
<line x1="489.209" y1="315.547" x2="489.209" y2="465.771" stroke="white" stroke-width="2"/>
<line x1="496.344" y1="315.547" x2="496.344" y2="465.771" stroke="white" stroke-width="2"/>
<line x1="504.919" y1="315.547" x2="504.919" y2="465.771" stroke="white" stroke-width="2"/>
<line x1="513.495" y1="315.547" x2="513.495" y2="465.771" stroke="white" stroke-width="2"/>
<line x1="522.073" y1="315.547" x2="522.073" y2="465.771" stroke="white" stroke-width="2"/>
<line x1="530.644" y1="315.547" x2="530.644" y2="465.771" stroke="white" stroke-width="2"/>
<line x1="537.78" y1="315.547" x2="537.78" y2="465.771" stroke="white" stroke-width="2"/>
<line x1="546.358" y1="315.547" x2="546.358" y2="465.771" stroke="white" stroke-width="2"/>
<line x1="554.93" y1="315.547" x2="554.93" y2="465.771" stroke="white" stroke-width="2"/>
<line x1="563.503" y1="315.547" x2="563.503" y2="465.771" stroke="white" stroke-width="2"/>
<line x1="572.079" y1="315.547" x2="572.079" y2="465.771" stroke="white" stroke-width="2"/>
<line x1="579.218" y1="315.547" x2="579.218" y2="465.771" stroke="white" stroke-width="2"/>
<line x1="587.794" y1="315.547" x2="587.794" y2="465.771" stroke="white" stroke-width="2"/>
<line x1="596.364" y1="315.547" x2="596.364" y2="465.771" stroke="white" stroke-width="2"/>
<line x1="604.938" y1="315.547" x2="604.938" y2="465.771" stroke="white" stroke-width="2"/>
<line x1="613.511" y1="315.547" x2="613.511" y2="465.771" stroke="white" stroke-width="2"/>
<line x1="620.65" y1="315.547" x2="620.65" y2="465.771" stroke="white" stroke-width="2"/>
<line x1="629.224" y1="315.547" x2="629.224" y2="465.771" stroke="white" stroke-width="2"/>
<line x1="637.8" y1="315.547" x2="637.8" y2="465.771" stroke="white" stroke-width="2"/>
<line x1="646.37" y1="315.547" x2="646.37" y2="465.771" stroke="white" stroke-width="2"/>
<line x1="654.937" y1="315.547" x2="654.937" y2="465.771" stroke="white" stroke-width="2"/>
<line x1="662.085" y1="315.547" x2="662.085" y2="465.771" stroke="white" stroke-width="2"/>
<line x1="670.658" y1="315.547" x2="670.658" y2="465.771" stroke="white" stroke-width="2"/>
<line x1="679.231" y1="315.547" x2="679.231" y2="465.771" stroke="white" stroke-width="2"/>
<line x1="687.798" y1="315.547" x2="687.798" y2="465.771" stroke="white" stroke-width="2"/>
<line x1="696.371" y1="315.547" x2="696.371" y2="465.771" stroke="white" stroke-width="2"/>
<line x1="703.521" y1="315.547" x2="703.521" y2="465.771" stroke="white" stroke-width="2"/>
<line x1="712.091" y1="315.547" x2="712.091" y2="465.771" stroke="white" stroke-width="2"/>
<line x1="720.667" y1="315.547" x2="720.667" y2="465.771" stroke="white" stroke-width="2"/>
<line x1="729.23" y1="315.547" x2="729.23" y2="465.771" stroke="white" stroke-width="2"/>
<line x1="737.806" y1="315.547" x2="737.806" y2="465.771" stroke="white" stroke-width="2"/>
<line x1="744.952" y1="315.547" x2="744.952" y2="465.771" stroke="white" stroke-width="2"/>
<line x1="753.53" y1="315.547" x2="753.53" y2="465.771" stroke="white" stroke-width="2"/>
<line x1="762.09" y1="315.547" x2="762.09" y2="465.771" stroke="white" stroke-width="2"/>
</g>
<mask id="mask1_2904_212" style="mask-type:alpha" maskUnits="userSpaceOnUse" x="0" y="128" width="311" height="235">
<g opacity="0.9">
<path d="M159.59 161.288C202.944 167.991 253.619 173.566 309.607 177.705L309.607 315.637C253.619 309.988 202.944 302.377 159.59 293.227C103.502 281.389 59.667 266.976 32.4322 250.903V360.203C12.0819 343.19 1 324.863 1 305.764V212.473C1 225.955 12.0819 238.893 32.4322 250.903L32.4322 130.283C59.667 142.058 103.502 152.616 159.59 161.288Z" fill="#C4C4C4"/>
<path d="M32.4322 250.903C59.667 266.976 103.502 281.389 159.59 293.227C202.944 302.377 253.619 309.988 309.607 315.637L309.607 177.705C253.619 173.566 202.944 167.991 159.59 161.288C103.502 152.616 59.667 142.058 32.4322 130.283L32.4322 250.903ZM32.4322 250.903C12.0819 238.893 1 225.955 1 212.473V305.764C1 324.863 12.0819 343.19 32.4322 360.203V250.903Z" stroke="white" stroke-width="2"/>
</g>
</mask>
<g mask="url(#mask1_2904_212)">
<line x1="33.4375" y1="130.049" x2="33.4375" y2="375.992" stroke="white" stroke-width="2"/>
<line x1="42.0107" y1="130.049" x2="42.0107" y2="375.992" stroke="white" stroke-width="2"/>
<line x1="50.5723" y1="130.049" x2="50.5723" y2="375.992" stroke="white" stroke-width="2"/>
<line x1="57.7256" y1="130.049" x2="57.7256" y2="375.992" stroke="white" stroke-width="2"/>
<line x1="66.2969" y1="130.049" x2="66.2969" y2="375.992" stroke="white" stroke-width="2"/>
<line x1="74.8721" y1="130.049" x2="74.8721" y2="375.992" stroke="white" stroke-width="2"/>
<line x1="83.4482" y1="130.049" x2="83.4482" y2="375.992" stroke="white" stroke-width="2"/>
<line x1="92.0068" y1="130.049" x2="92.0068" y2="375.992" stroke="white" stroke-width="2"/>
<line x1="99.1582" y1="130.049" x2="99.1582" y2="375.992" stroke="white" stroke-width="2"/>
<line x1="107.731" y1="130.049" x2="107.731" y2="375.992" stroke="white" stroke-width="2"/>
<line x1="116.305" y1="130.049" x2="116.305" y2="375.992" stroke="white" stroke-width="2"/>
<line x1="124.873" y1="130.049" x2="124.873" y2="375.992" stroke="white" stroke-width="2"/>
<line x1="133.444" y1="130.049" x2="133.444" y2="375.992" stroke="white" stroke-width="2"/>
<line x1="140.593" y1="130.049" x2="140.593" y2="375.992" stroke="white" stroke-width="2"/>
<line x1="149.169" y1="130.049" x2="149.169" y2="375.992" stroke="white" stroke-width="2"/>
<line x1="157.728" y1="130.049" x2="157.728" y2="375.992" stroke="white" stroke-width="2"/>
<line x1="166.303" y1="130.049" x2="166.303" y2="375.992" stroke="white" stroke-width="2"/>
<line x1="174.881" y1="130.049" x2="174.881" y2="375.992" stroke="white" stroke-width="2"/>
<line x1="182.025" y1="130.049" x2="182.025" y2="375.992" stroke="white" stroke-width="2"/>
<line x1="190.604" y1="130.049" x2="190.604" y2="375.992" stroke="white" stroke-width="2"/>
<line x1="199.165" y1="130.049" x2="199.165" y2="375.992" stroke="white" stroke-width="2"/>
<line x1="207.738" y1="130.049" x2="207.738" y2="375.992" stroke="white" stroke-width="2"/>
<line x1="216.312" y1="130.049" x2="216.312" y2="375.992" stroke="white" stroke-width="2"/>
<line x1="223.465" y1="130.049" x2="223.465" y2="375.992" stroke="white" stroke-width="2"/>
<line x1="232.024" y1="130.049" x2="232.024" y2="375.992" stroke="white" stroke-width="2"/>
<line x1="240.603" y1="130.049" x2="240.603" y2="375.992" stroke="white" stroke-width="2"/>
<line x1="249.176" y1="130.049" x2="249.176" y2="375.992" stroke="white" stroke-width="2"/>
<line x1="257.746" y1="130.049" x2="257.746" y2="375.992" stroke="white" stroke-width="2"/>
<line x1="264.886" y1="130.049" x2="264.886" y2="375.992" stroke="white" stroke-width="2"/>
<line x1="273.459" y1="130.049" x2="273.459" y2="375.992" stroke="white" stroke-width="2"/>
<line x1="282.032" y1="130.049" x2="282.032" y2="375.992" stroke="white" stroke-width="2"/>
<line x1="290.61" y1="130.049" x2="290.61" y2="375.992" stroke="white" stroke-width="2"/>
<line x1="0.587891" y1="130.051" x2="0.587883" y2="375.994" stroke="white" stroke-width="2"/>
<line x1="299.182" y1="130.049" x2="299.182" y2="375.992" stroke="white" stroke-width="2"/>
<line x1="9.125" y1="130.051" x2="9.12499" y2="375.994" stroke="white" stroke-width="2"/>
<line x1="306.32" y1="130.049" x2="306.32" y2="375.992" stroke="white" stroke-width="2"/>
<line x1="16.2783" y1="130.049" x2="16.2783" y2="375.992" stroke="white" stroke-width="2"/>
<line x1="24.8643" y1="130.049" x2="24.8643" y2="375.992" stroke="white" stroke-width="2"/>
</g>
</svg>
